# MagicaVoxel @ Ephtracy

# group
o 

# material
mtllib Flint.mtl
usemtl palette

# normals
vn -1 0 0
vn 1 0 0
vn 0 0 1
vn 0 0 -1
vn 0 -1 0
vn 0 1 0

# texcoords
vt 0.978516 0.5
vt 0.982422 0.5
vt 0.986328 0.5

# verts
v -0.6 0 0.3
v -0.6 0 -0.1
v -0.6 0.3 0.3
v -0.6 0.3 -0.1
v -0.5 0 0.4
v -0.5 0 0.3
v -0.5 0 -0.1
v -0.5 0 -0.3
v -0.5 0.3 0.3
v -0.5 0.3 -0.1
v -0.5 0.3 -0.3
v -0.5 0.4 0.4
v -0.5 0.4 0.3
v -0.5 0.4 -0.1
v -0.4 0 0.5
v -0.4 0 0.4
v -0.4 0 -0.3
v -0.4 0 -0.5
v -0.4 0.3 -0.1
v -0.4 0.3 -0.3
v -0.4 0.3 -0.5
v -0.4 0.4 0.5
v -0.4 0.4 0.4
v -0.4 0.4 -0.1
v -0.4 0.4 -0.3
v -0.3 0 0.6
v -0.3 0 0.5
v -0.3 0 -0.5
v -0.3 0 -0.6
v -0.3 0.3 -0.3
v -0.3 0.3 -0.5
v -0.3 0.3 -0.6
v -0.3 0.4 0.6
v -0.3 0.4 0.5
v -0.3 0.4 -0.3
v -0.3 0.4 -0.5
v -0.2 0 0.7
v -0.2 0 0.6
v -0.2 0.4 0.7
v -0.2 0.4 0.6
v -0.1 0 0.8
v -0.1 0 0.7
v -0.1 0 -0.6
v -0.1 0 -0.7
v -0.1 0.3 0.8
v -0.1 0.3 0.7
v -0.1 0.3 -0.5
v -0.1 0.3 -0.6
v -0.1 0.3 -0.7
v -0.1 0.4 -0.5
v -0.1 0.4 -0.6
v 0 0 -0.7
v 0 0 -0.8
v 0 0.3 -0.6
v 0 0.3 -0.7
v 0 0.3 -0.8
v 0 0.4 -0.6
v 0 0.4 -0.7
v 0.2 0.3 -0.7
v 0.2 0.3 -0.8
v 0.2 0.4 -0.7
v 0.2 0.4 -0.8
v 0.3 0 -0.7
v 0.3 0 -0.8
v 0.3 0.3 -0.6
v 0.3 0.3 -0.7
v 0.3 0.4 -0.6
v 0.3 0.4 -0.7
v 0.3 0.4 -0.8
v 0.4 0 -0.6
v 0.4 0 -0.7
v 0.4 0.3 -0.4
v 0.4 0.3 -0.6
v 0.4 0.3 -0.7
v 0.4 0.4 -0.4
v 0.4 0.4 -0.6
v 0.5 0 0.8
v 0.5 0 0.7
v 0.5 0 -0.4
v 0.5 0 -0.6
v 0.5 0.3 0.8
v 0.5 0.3 0.7
v 0.5 0.3 0.5
v 0.5 0.3 0
v 0.5 0.3 -0.4
v 0.5 0.3 -0.6
v 0.5 0.4 0.7
v 0.5 0.4 0.5
v 0.5 0.4 0
v 0.5 0.4 -0.4
v 0.6 0 0.7
v 0.6 0 0.5
v 0.6 0 0
v 0.6 0 -0.4
v 0.6 0.3 0.7
v 0.6 0.3 0.5
v 0.6 0.3 0
v 0.6 0.3 -0.4
v 0.6 0.4 0.5
v 0.6 0.4 0
v 0.7 0 0.5
v 0.7 0 0
v 0.7 0.3 0.5
v 0.7 0.3 0
v -0.1 0 0.8
v -0.1 0.3 0.8
v 0.5 0 0.8
v 0.5 0.3 0.8
v -0.2 0 0.7
v -0.2 0.4 0.7
v -0.1 0 0.7
v -0.1 0.3 0.7
v 0.5 0 0.7
v 0.5 0.3 0.7
v 0.5 0.4 0.7
v 0.6 0 0.7
v 0.6 0.3 0.7
v -0.3 0 0.6
v -0.3 0.4 0.6
v -0.2 0 0.6
v -0.2 0.4 0.6
v -0.4 0 0.5
v -0.4 0.4 0.5
v -0.3 0 0.5
v -0.3 0.4 0.5
v 0.5 0.3 0.5
v 0.5 0.4 0.5
v 0.6 0 0.5
v 0.6 0.3 0.5
v 0.6 0.4 0.5
v 0.7 0 0.5
v 0.7 0.3 0.5
v -0.5 0 0.4
v -0.5 0.4 0.4
v -0.4 0 0.4
v -0.4 0.4 0.4
v -0.6 0 0.3
v -0.6 0.3 0.3
v -0.5 0 0.3
v -0.5 0.3 0.3
v 0.5 0.3 0
v 0.5 0.4 0
v 0.6 0 0
v 0.6 0.3 0
v 0.6 0.4 0
v 0.7 0 0
v 0.7 0.3 0
v -0.6 0 -0.1
v -0.6 0.3 -0.1
v -0.5 0 -0.1
v -0.5 0.3 -0.1
v -0.5 0.4 -0.1
v -0.4 0.3 -0.1
v -0.4 0.4 -0.1
v -0.5 0 -0.3
v -0.5 0.3 -0.3
v -0.4 0 -0.3
v -0.4 0.3 -0.3
v -0.4 0.4 -0.3
v -0.3 0.3 -0.3
v -0.3 0.4 -0.3
v 0.4 0.3 -0.4
v 0.4 0.4 -0.4
v 0.5 0 -0.4
v 0.5 0.3 -0.4
v 0.5 0.4 -0.4
v 0.6 0 -0.4
v 0.6 0.3 -0.4
v -0.4 0 -0.5
v -0.4 0.3 -0.5
v -0.3 0 -0.5
v -0.3 0.3 -0.5
v -0.3 0.4 -0.5
v -0.1 0.3 -0.5
v -0.1 0.4 -0.5
v -0.3 0 -0.6
v -0.3 0.3 -0.6
v -0.1 0 -0.6
v -0.1 0.3 -0.6
v -0.1 0.4 -0.6
v 0 0.3 -0.6
v 0 0.4 -0.6
v 0.3 0.3 -0.6
v 0.3 0.4 -0.6
v 0.4 0 -0.6
v 0.4 0.3 -0.6
v 0.4 0.4 -0.6
v 0.5 0 -0.6
v 0.5 0.3 -0.6
v -0.1 0 -0.7
v -0.1 0.3 -0.7
v 0 0 -0.7
v 0 0.3 -0.7
v 0 0.4 -0.7
v 0.2 0.3 -0.7
v 0.2 0.4 -0.7
v 0.3 0 -0.7
v 0.3 0.3 -0.7
v 0.4 0 -0.7
v 0.4 0.3 -0.7
v 0 0 -0.8
v 0 0.3 -0.8
v 0.2 0.3 -0.8
v 0.2 0.4 -0.8
v 0.3 0 -0.8
v 0.3 0.4 -0.8
v -0.1 0 0.8
v 0.5 0 0.8
v -0.2 0 0.7
v -0.1 0 0.7
v 0 0 0.7
v 0.5 0 0.7
v 0.6 0 0.7
v -0.3 0 0.6
v -0.2 0 0.6
v 0 0 0.6
v -0.4 0 0.5
v -0.3 0 0.5
v -0.2 0 0.5
v 0.5 0 0.5
v 0.6 0 0.5
v 0.7 0 0.5
v -0.5 0 0.4
v -0.4 0 0.4
v -0.3 0 0.4
v -0.6 0 0.3
v -0.5 0 0.3
v -0.4 0 0.3
v 0.5 0 0
v 0.6 0 0
v 0.7 0 0
v -0.6 0 -0.1
v -0.5 0 -0.1
v -0.4 0 -0.1
v -0.5 0 -0.3
v -0.4 0 -0.3
v -0.3 0 -0.3
v 0.4 0 -0.4
v 0.5 0 -0.4
v 0.6 0 -0.4
v -0.4 0 -0.5
v -0.3 0 -0.5
v -0.1 0 -0.5
v -0.3 0 -0.6
v -0.1 0 -0.6
v 0 0 -0.6
v 0.3 0 -0.6
v 0.4 0 -0.6
v 0.5 0 -0.6
v -0.1 0 -0.7
v 0 0 -0.7
v 0.3 0 -0.7
v 0.4 0 -0.7
v 0 0 -0.8
v 0.3 0 -0.8
v -0.1 0.3 0.8
v 0.5 0.3 0.8
v -0.1 0.3 0.7
v 0.5 0.3 0.7
v 0.6 0.3 0.7
v 0.5 0.3 0.5
v 0.6 0.3 0.5
v 0.7 0.3 0.5
v -0.6 0.3 0.3
v -0.5 0.3 0.3
v 0.5 0.3 0
v 0.6 0.3 0
v 0.7 0.3 0
v -0.6 0.3 -0.1
v -0.5 0.3 -0.1
v -0.4 0.3 -0.1
v -0.5 0.3 -0.3
v -0.4 0.3 -0.3
v -0.3 0.3 -0.3
v 0.4 0.3 -0.4
v 0.5 0.3 -0.4
v 0.6 0.3 -0.4
v -0.4 0.3 -0.5
v -0.3 0.3 -0.5
v -0.1 0.3 -0.5
v -0.3 0.3 -0.6
v -0.1 0.3 -0.6
v 0 0.3 -0.6
v 0.3 0.3 -0.6
v 0.4 0.3 -0.6
v 0.5 0.3 -0.6
v -0.1 0.3 -0.7
v 0 0.3 -0.7
v 0.2 0.3 -0.7
v 0.3 0.3 -0.7
v 0.4 0.3 -0.7
v 0 0.3 -0.8
v 0.2 0.3 -0.8
v -0.2 0.4 0.7
v 0.5 0.4 0.7
v -0.3 0.4 0.6
v -0.2 0.4 0.6
v 0 0.4 0.6
v -0.4 0.4 0.5
v -0.3 0.4 0.5
v -0.2 0.4 0.5
v 0 0.4 0.5
v 0.1 0.4 0.5
v 0.5 0.4 0.5
v 0.6 0.4 0.5
v -0.5 0.4 0.4
v -0.4 0.4 0.4
v -0.3 0.4 0.4
v -0.5 0.4 0.3
v -0.4 0.4 0.3
v 0.1 0.4 0.1
v 0.2 0.4 0.1
v 0.5 0.4 0
v 0.6 0.4 0
v -0.5 0.4 -0.1
v -0.4 0.4 -0.1
v -0.3 0.4 -0.1
v -0.4 0.4 -0.3
v -0.3 0.4 -0.3
v -0.2 0.4 -0.3
v 0.2 0.4 -0.3
v 0.3 0.4 -0.3
v -0.2 0.4 -0.4
v 0 0.4 -0.4
v 0.4 0.4 -0.4
v 0.5 0.4 -0.4
v -0.3 0.4 -0.5
v -0.1 0.4 -0.5
v 0 0.4 -0.5
v 0.1 0.4 -0.5
v -0.1 0.4 -0.6
v 0 0.4 -0.6
v 0.1 0.4 -0.6
v 0.2 0.4 -0.6
v 0.3 0.4 -0.6
v 0.4 0.4 -0.6
v 0 0.4 -0.7
v 0.2 0.4 -0.7
v 0.3 0.4 -0.7
v 0.2 0.4 -0.8
v 0.3 0.4 -0.8

# faces
f 3/3/1 2/3/1 1/3/1
f 4/3/1 2/3/1 3/3/1
f 9/3/1 6/3/1 5/3/1
f 10/3/1 8/3/1 7/3/1
f 11/3/1 8/3/1 10/3/1
f 12/3/1 9/3/1 5/3/1
f 13/1/1 10/1/1 9/1/1
f 13/3/1 9/3/1 12/3/1
f 14/1/1 10/1/1 13/1/1
f 20/3/1 18/3/1 17/3/1
f 21/3/1 18/3/1 20/3/1
f 22/3/1 16/3/1 15/3/1
f 23/3/1 16/3/1 22/3/1
f 24/1/1 20/1/1 19/1/1
f 25/1/1 20/1/1 24/1/1
f 31/3/1 29/3/1 28/3/1
f 32/3/1 29/3/1 31/3/1
f 33/3/1 27/3/1 26/3/1
f 34/3/1 27/3/1 33/3/1
f 35/1/1 31/1/1 30/1/1
f 36/1/1 31/1/1 35/1/1
f 39/3/1 38/3/1 37/3/1
f 40/3/1 38/3/1 39/3/1
f 45/3/1 42/3/1 41/3/1
f 46/3/1 42/3/1 45/3/1
f 48/3/1 44/3/1 43/3/1
f 49/3/1 44/3/1 48/3/1
f 50/1/1 48/1/1 47/1/1
f 51/1/1 48/1/1 50/1/1
f 55/3/1 53/3/1 52/3/1
f 56/3/1 53/3/1 55/3/1
f 57/1/1 55/1/1 54/1/1
f 58/1/1 55/1/1 57/1/1
f 61/3/1 60/3/1 59/3/1
f 62/3/1 60/3/1 61/3/1
f 63/3/2 64/3/2 66/3/2
f 65/2/2 66/2/2 67/2/2
f 66/3/2 64/3/2 68/3/2
f 67/2/2 66/2/2 68/2/2
f 68/3/2 64/3/2 69/3/2
f 70/3/2 71/3/2 73/3/2
f 73/3/2 71/3/2 74/3/2
f 72/3/2 73/3/2 75/3/2
f 75/3/2 73/3/2 76/3/2
f 77/3/2 78/3/2 81/3/2
f 81/3/2 78/3/2 82/3/2
f 79/3/2 80/3/2 85/3/2
f 85/3/2 80/3/2 86/3/2
f 82/3/2 83/3/2 87/3/2
f 87/3/2 83/3/2 88/3/2
f 84/3/2 85/3/2 89/3/2
f 89/3/2 85/3/2 90/3/2
f 91/3/2 92/3/2 95/3/2
f 95/3/2 92/3/2 96/3/2
f 93/3/2 94/3/2 97/3/2
f 97/3/2 94/3/2 98/3/2
f 96/3/2 97/3/2 99/3/2
f 99/3/2 97/3/2 100/3/2
f 101/3/2 102/3/2 103/3/2
f 103/3/2 102/3/2 104/3/2
f 107/3/3 106/3/3 105/3/3
f 108/3/3 106/3/3 107/3/3
f 111/3/3 110/3/3 109/3/3
f 112/3/3 110/3/3 111/3/3
f 114/3/3 110/3/3 112/3/3
f 115/3/3 110/3/3 114/3/3
f 116/3/3 114/3/3 113/3/3
f 117/3/3 114/3/3 116/3/3
f 120/3/3 119/3/3 118/3/3
f 121/3/3 119/3/3 120/3/3
f 124/3/3 123/3/3 122/3/3
f 125/3/3 123/3/3 124/3/3
f 129/3/3 127/3/3 126/3/3
f 130/3/3 127/3/3 129/3/3
f 131/3/3 129/3/3 128/3/3
f 132/3/3 129/3/3 131/3/3
f 135/3/3 134/3/3 133/3/3
f 136/3/3 134/3/3 135/3/3
f 139/3/3 138/3/3 137/3/3
f 140/3/3 138/3/3 139/3/3
f 141/3/4 142/3/4 144/3/4
f 144/3/4 142/3/4 145/3/4
f 143/3/4 144/3/4 146/3/4
f 146/3/4 144/3/4 147/3/4
f 148/3/4 149/3/4 150/3/4
f 150/3/4 149/3/4 151/3/4
f 151/1/4 152/1/4 153/1/4
f 153/1/4 152/1/4 154/1/4
f 155/3/4 156/3/4 157/3/4
f 157/3/4 156/3/4 158/3/4
f 158/1/4 159/1/4 160/1/4
f 160/1/4 159/1/4 161/1/4
f 162/3/4 163/3/4 165/3/4
f 165/3/4 163/3/4 166/3/4
f 164/3/4 165/3/4 167/3/4
f 167/3/4 165/3/4 168/3/4
f 169/3/4 170/3/4 171/3/4
f 171/3/4 170/3/4 172/3/4
f 172/1/4 173/1/4 174/1/4
f 174/1/4 173/1/4 175/1/4
f 176/3/4 177/3/4 178/3/4
f 178/3/4 177/3/4 179/3/4
f 179/1/4 180/1/4 181/1/4
f 181/1/4 180/1/4 182/1/4
f 183/3/4 184/3/4 186/3/4
f 186/3/4 184/3/4 187/3/4
f 185/3/4 186/3/4 188/3/4
f 188/3/4 186/3/4 189/3/4
f 190/3/4 191/3/4 192/3/4
f 192/3/4 191/3/4 193/3/4
f 193/1/4 194/1/4 195/1/4
f 195/1/4 194/1/4 196/1/4
f 197/3/4 198/3/4 199/3/4
f 199/3/4 198/3/4 200/3/4
f 201/3/4 202/3/4 203/3/4
f 201/3/4 203/3/4 205/3/4
f 203/3/4 204/3/4 205/3/4
f 205/3/4 204/3/4 206/3/4
f 210/3/5 208/3/5 207/3/5
f 211/3/5 208/3/5 210/3/5
f 212/3/5 208/3/5 211/3/5
f 215/3/5 210/3/5 209/3/5
f 215/3/5 211/3/5 210/3/5
f 216/2/5 212/2/5 211/2/5
f 216/3/5 211/3/5 215/3/5
f 218/3/5 215/3/5 214/3/5
f 219/2/5 216/2/5 215/2/5
f 219/3/5 215/3/5 218/3/5
f 220/3/5 213/3/5 212/3/5
f 220/2/5 216/2/5 219/2/5
f 220/2/5 212/2/5 216/2/5
f 221/3/5 213/3/5 220/3/5
f 224/3/5 218/3/5 217/3/5
f 225/2/5 219/2/5 218/2/5
f 225/2/5 220/2/5 219/2/5
f 225/3/5 218/3/5 224/3/5
f 225/2/5 221/2/5 220/2/5
f 227/3/5 224/3/5 223/3/5
f 228/2/5 225/2/5 224/2/5
f 228/3/5 224/3/5 227/3/5
f 229/2/5 221/2/5 225/2/5
f 229/2/5 225/2/5 228/2/5
f 229/2/5 228/2/5 227/2/5
f 230/3/5 222/3/5 221/3/5
f 230/2/5 221/2/5 229/2/5
f 231/3/5 222/3/5 230/3/5
f 232/3/5 227/3/5 226/3/5
f 233/2/5 229/2/5 227/2/5
f 233/3/5 227/3/5 232/3/5
f 234/2/5 229/2/5 233/2/5
f 235/3/5 234/3/5 233/3/5
f 236/2/5 229/2/5 234/2/5
f 236/3/5 234/3/5 235/3/5
f 237/2/5 229/2/5 236/2/5
f 238/2/5 229/2/5 237/2/5
f 239/3/5 230/3/5 229/3/5
f 239/2/5 229/2/5 238/2/5
f 240/3/5 230/3/5 239/3/5
f 241/3/5 237/3/5 236/3/5
f 242/2/5 238/2/5 237/2/5
f 242/3/5 237/3/5 241/3/5
f 243/2/5 238/2/5 242/2/5
f 244/3/5 243/3/5 242/3/5
f 245/2/5 238/2/5 243/2/5
f 245/3/5 243/3/5 244/3/5
f 246/2/5 238/2/5 245/2/5
f 247/2/5 238/2/5 246/2/5
f 248/3/5 239/3/5 238/3/5
f 248/2/5 238/2/5 247/2/5
f 249/3/5 239/3/5 248/3/5
f 250/3/5 246/3/5 245/3/5
f 251/2/5 247/2/5 246/2/5
f 251/3/5 246/3/5 250/3/5
f 252/3/5 248/3/5 247/3/5
f 252/2/5 247/2/5 251/2/5
f 253/3/5 248/3/5 252/3/5
f 254/3/5 252/3/5 251/3/5
f 255/3/5 252/3/5 254/3/5
f 256/3/6 257/3/6 258/3/6
f 258/3/6 257/3/6 259/3/6
f 259/3/6 260/3/6 261/3/6
f 261/3/6 260/3/6 262/3/6
f 262/3/6 263/3/6 267/3/6
f 267/3/6 263/3/6 268/3/6
f 264/3/6 265/3/6 269/3/6
f 269/3/6 265/3/6 270/3/6
f 270/3/6 271/3/6 272/3/6
f 272/3/6 271/3/6 273/3/6
f 266/3/6 267/3/6 276/3/6
f 276/3/6 267/3/6 277/3/6
f 273/3/6 274/3/6 278/3/6
f 278/3/6 274/3/6 279/3/6
f 279/3/6 280/3/6 281/3/6
f 281/3/6 280/3/6 282/3/6
f 275/3/6 276/3/6 285/3/6
f 285/3/6 276/3/6 286/3/6
f 282/3/6 283/3/6 287/3/6
f 287/3/6 283/3/6 288/3/6
f 284/3/6 285/3/6 290/3/6
f 290/3/6 285/3/6 291/3/6
f 288/3/6 289/3/6 292/3/6
f 292/3/6 289/3/6 293/3/6
f 294/3/6 295/3/6 297/3/6
f 297/3/6 295/3/6 298/3/6
f 296/3/6 297/3/6 300/3/6
f 297/2/6 298/2/6 301/2/6
f 300/3/6 297/3/6 301/3/6
f 298/3/6 295/3/6 302/3/6
f 301/2/6 298/2/6 302/2/6
f 302/3/6 295/3/6 303/3/6
f 303/3/6 295/3/6 304/3/6
f 299/3/6 300/3/6 307/3/6
f 300/2/6 301/2/6 308/2/6
f 301/2/6 302/2/6 308/2/6
f 307/3/6 300/3/6 308/3/6
f 302/2/6 303/2/6 308/2/6
f 306/3/6 307/3/6 309/3/6
f 307/2/6 308/2/6 310/2/6
f 309/3/6 307/3/6 310/3/6
f 308/2/6 303/2/6 311/2/6
f 310/2/6 308/2/6 311/2/6
f 304/3/6 305/3/6 311/3/6
f 303/3/6 304/3/6 311/3/6
f 311/3/6 305/3/6 312/3/6
f 312/3/6 305/3/6 313/3/6
f 313/3/6 305/3/6 314/3/6
f 309/1/6 310/1/6 315/1/6
f 310/2/6 311/2/6 316/2/6
f 315/1/6 310/1/6 316/1/6
f 311/2/6 312/2/6 316/2/6
f 316/2/6 312/2/6 317/2/6
f 316/1/6 317/1/6 318/1/6
f 317/2/6 312/2/6 319/2/6
f 318/1/6 317/1/6 319/1/6
f 319/2/6 312/2/6 320/2/6
f 312/3/6 313/3/6 321/3/6
f 320/2/6 312/2/6 321/2/6
f 321/3/6 313/3/6 322/3/6
f 319/1/6 320/1/6 323/1/6
f 321/2/6 322/2/6 323/2/6
f 320/2/6 321/2/6 323/2/6
f 323/2/6 322/2/6 324/2/6
f 322/3/6 313/3/6 325/3/6
f 325/3/6 313/3/6 326/3/6
f 319/1/6 323/1/6 327/1/6
f 323/1/6 324/1/6 327/1/6
f 327/1/6 324/1/6 328/1/6
f 324/2/6 322/2/6 329/2/6
f 328/1/6 324/1/6 329/1/6
f 329/2/6 322/2/6 330/2/6
f 328/1/6 329/1/6 331/1/6
f 329/1/6 330/1/6 331/1/6
f 331/1/6 330/1/6 332/1/6
f 330/2/6 322/2/6 333/2/6
f 332/1/6 330/1/6 333/1/6
f 333/2/6 322/2/6 334/2/6
f 322/3/6 325/3/6 335/3/6
f 334/2/6 322/2/6 335/2/6
f 335/3/6 325/3/6 336/3/6
f 333/1/6 334/1/6 337/1/6
f 332/1/6 333/1/6 337/1/6
f 334/2/6 335/2/6 338/2/6
f 337/1/6 334/1/6 338/1/6
f 338/2/6 335/2/6 339/2/6
f 338/3/6 339/3/6 340/3/6
f 340/3/6 339/3/6 341/3/6
